<?xml version="1.0" encoding="UTF-8"?>
<svg id="Layer_2" data-name="Layer 2" xmlns="http://www.w3.org/2000/svg" viewBox="0 0 350.39 332.65">
  <defs>
    <style>
      .cls-1 {
        fill: #005d6f;
      }

      .cls-2 {
        fill: #fcc800;
      }

      .cls-3 {
        fill: #fff;
      }

      .cls-4 {
        fill: #c2d6a3;
      }

      .cls-5 {
        fill: #e31e23;
      }

      .cls-6 {
        fill: #257db0;
      }

      .cls-7 {
        fill: #aed9f7;
      }

      .cls-8 {
        fill: #009588;
      }

      .cls-9 {
        fill: #999;
      }

      .cls-10 {
        fill: #ef7f19;
      }
    </style>
  </defs>
  <g id="Color_Negro_Blanco" data-name="Color Negro Blanco">
    <rect class="cls-3" width="350.39" height="332.65"/>
    <g>
      <g>
        <path class="cls-9" d="M10.22,313.69h-.06c-.46-.84-1.26-1.61-2.38-1.61-1.21,0-2.13.93-2.32,2.11-.24,1.52.91,2.45,2.02,3.5,1.13,1.09,2.21,2.26,1.88,4.34-.4,2.54-2.43,4.55-5.06,4.55-.99,0-2.03-.46-2.71-1.08l.37-2.35c.65.8,1.36,1.55,2.57,1.55,1.39,0,2.49-1.08,2.71-2.41.25-1.58-.85-2.63-1.97-3.78-1.09-1.11-2.2-2.35-1.9-4.24.38-2.39,2.22-4.06,4.61-4.06,1.02,0,1.92.4,2.63,1.02l-.39,2.48Z"/>
        <path class="cls-9" d="M12.77,326.33h-2.01l2.52-15.89h2.01l-2.52,15.89ZM14.8,307.25c-.84,0-1.41-.68-1.28-1.52.13-.81.92-1.49,1.75-1.49s1.38.68,1.25,1.49c-.13.84-.92,1.52-1.73,1.52Z"/>
        <path class="cls-9" d="M19.89,311.71c.95-.93,2.13-1.52,3.37-1.52,2.82,0,2.65,2.6,2.31,4.77l-1.8,11.37h-2.01l1.77-11.15c.3-1.89.41-3.35-1.27-3.35-2.29,0-2.78,2.51-3.05,4.18l-1.63,10.32h-2.01l2.52-15.89h2.01l-.2,1.27Z"/>
        <path class="cls-9" d="M29.36,318.8l-.07.46c-.25,1.58-.58,5.42,1.62,5.42,1.77,0,2.41-2.48,2.61-3.75h2.08c-.41,2.42-1.85,5.64-4.8,5.64-4.18,0-3.95-4.96-3.45-8.15.45-2.85,1.93-8.24,5.77-8.24s3.53,4.86,3.09,7.65l-.15.96h-6.69ZM34.27,317.1v-.28c.19-1.52.64-4.74-1.47-4.74-1.92,0-2.92,3.59-3.15,5.02h4.61Z"/>
        <path class="cls-9" d="M41.37,312.54h.06c.61-1.11,1.68-2.38,3.01-2.35l-.37,2.35-.4-.03c-2.08,0-2.61,2.01-3.01,4.55l-1.47,9.26h-2.01l2.52-15.89h2.01l-.33,2.11Z"/>
        <path class="cls-9" d="M51.61,326.92c-.47,2.97-1.03,5.73-5.06,5.73-2.79,0-3.82-1.67-3.39-4.4l.09-.59h1.98l-.04.28c-.24,1.49-.04,2.82,1.69,2.82,2.26,0,2.39-1.98,2.66-3.69l.29-1.86c-.8.77-1.69,1.11-2.75,1.11-3.96,0-3.16-5.48-2.71-8.3.42-2.66,1.55-7.84,5.24-7.84,1.08,0,1.9.5,2.36,1.33h.06l.17-1.09h2.01l-2.61,16.48ZM47.9,324.69c2.14,0,2.73-3.13,3.28-6.6.46-2.91.81-6.26-1.39-6.26-1.46,0-2.51.99-3.43,6.81-.28,1.74-.99,6.04,1.55,6.04Z"/>
        <path class="cls-9" d="M56.5,326.33h-2.01l2.52-15.89h2.01l-2.52,15.89ZM58.53,307.25c-.84,0-1.41-.68-1.28-1.52.13-.81.92-1.49,1.75-1.49s1.38.68,1.25,1.49c-.13.84-.92,1.52-1.73,1.52Z"/>
        <path class="cls-9" d="M66.63,326.33h-8.27l8.51-14.03h-5.42l.29-1.86h8.46l-8.67,14.03h5.39l-.29,1.86Z"/>
        <path class="cls-9" d="M77.56,326.33h-2.01l.2-1.24h-.06c-.73.9-1.72,1.49-2.87,1.49-2.54,0-3.55-1.42-2.45-8.36.57-3.56,1.4-8.02,5.24-8.02,1.12,0,1.75.46,2.24,1.33h.06l.17-1.09h2.01l-2.52,15.89ZM75.8,311.83c-2.23,0-2.91,3.53-3.34,6.23-1.04,6.57,0,6.88,1.17,6.88,1.95,0,2.61-1.83,3.4-6.81.54-3.44.75-6.29-1.23-6.29Z"/>
        <path class="cls-9" d="M84.68,311.71c.95-.93,2.13-1.52,3.37-1.52,2.82,0,2.65,2.6,2.31,4.77l-1.8,11.37h-2.01l1.77-11.15c.3-1.89.41-3.35-1.27-3.35-2.29,0-2.78,2.51-3.05,4.18l-1.63,10.32h-2.01l2.52-15.89h2.01l-.2,1.27Z"/>
        <path class="cls-9" d="M97.54,325.09h-.06c-.73.9-1.72,1.49-2.87,1.49-3.31,0-3.14-4.03-2.45-8.36.69-4.34,1.71-8.02,5.24-8.02,1.12,0,1.75.46,2.24,1.33h.06l1.58-9.98h2.01l-3.93,24.78h-2.01l.2-1.24ZM97.6,311.83c-2.26,0-2.98,3.96-3.34,6.23-.24,1.49-1.4,6.88,1.17,6.88,2.14,0,2.74-2.63,3.4-6.81.57-3.62.62-6.29-1.23-6.29Z"/>
        <path class="cls-9" d="M112.05,318.37c-.48,3-1.67,8.21-5.86,8.21s-3.73-5.2-3.25-8.21c.47-2.97,1.67-8.18,5.85-8.18s3.73,5.2,3.26,8.18ZM105.02,318.37c-.25,1.55-.94,6.32,1.48,6.32s3.23-4.77,3.48-6.32c.24-1.52.93-6.29-1.48-6.29s-3.23,4.77-3.47,6.29Z"/>
        <path class="cls-9" d="M128.05,313.13c-.41-.53-.98-1.05-1.75-1.05-2.6,0-3.57,4.52-3.86,6.35-.25,1.58-.65,6.26,1.73,6.26.93,0,1.63-.71,2.21-1.43h.06l-.4,2.51c-.67.5-1.65.8-2.42.8-3.65,0-3.74-5.14-3.31-7.87.48-3,1.97-8.52,6-8.52.74,0,1.51.22,2.1.62l-.37,2.32Z"/>
        <path class="cls-9" d="M138.09,318.37c-.48,3-1.67,8.21-5.85,8.21s-3.73-5.2-3.25-8.21c.47-2.97,1.67-8.18,5.85-8.18s3.73,5.2,3.26,8.18ZM131.06,318.37c-.25,1.55-.94,6.32,1.48,6.32s3.23-4.77,3.48-6.32c.24-1.52.94-6.29-1.48-6.29s-3.23,4.77-3.47,6.29Z"/>
        <path class="cls-9" d="M143.52,311.71c.95-.93,2.13-1.52,3.37-1.52,2.82,0,2.65,2.6,2.31,4.77l-1.8,11.37h-2.01l1.77-11.15c.3-1.89.41-3.35-1.27-3.35-2.29,0-2.78,2.51-3.05,4.18l-1.63,10.32h-2.01l2.52-15.89h2.01l-.2,1.27Z"/>
        <path class="cls-9" d="M160.08,318.37c-.48,3-1.67,8.21-5.85,8.21s-3.73-5.2-3.25-8.21c.47-2.97,1.67-8.18,5.85-8.18s3.73,5.2,3.26,8.18ZM153.05,318.37c-.25,1.55-.94,6.32,1.48,6.32s3.23-4.77,3.48-6.32c.24-1.52.94-6.29-1.48-6.29s-3.23,4.77-3.47,6.29Z"/>
        <path class="cls-9" d="M169.64,313.13c-.41-.53-.98-1.05-1.75-1.05-2.6,0-3.57,4.52-3.86,6.35-.25,1.58-.65,6.26,1.73,6.26.93,0,1.63-.71,2.21-1.43h.06l-.4,2.51c-.67.5-1.65.8-2.42.8-3.65,0-3.74-5.14-3.31-7.87.48-3,1.97-8.52,6-8.52.74,0,1.51.22,2.1.62l-.37,2.32Z"/>
        <path class="cls-9" d="M171.8,326.33h-2.01l2.52-15.89h2.01l-2.52,15.89ZM173.83,307.25c-.84,0-1.41-.68-1.28-1.52.13-.81.92-1.49,1.75-1.49s1.38.68,1.25,1.49c-.13.84-.92,1.52-1.73,1.52Z"/>
        <path class="cls-9" d="M178.9,311.77h.06c.86-.93,2.05-1.58,3.26-1.58,1.3,0,2.31.68,2.64,1.89,1.02-1.18,2.13-1.89,3.58-1.89,2.97,0,2.85,2.35,2.47,4.71l-1.81,11.43h-2.01l1.8-11.37c.24-1.52.34-3.13-1.3-3.13-2.38,0-2.87,2.7-3.19,4.71l-1.55,9.79h-2.01l1.8-11.34c.24-1.49.41-3.16-1.23-3.16-2.45,0-2.99,3.04-3.31,5.05l-1.5,9.45h-2.01l2.52-15.89h2.01l-.21,1.33Z"/>
        <path class="cls-9" d="M193.91,326.33h-2.01l2.52-15.89h2.01l-2.52,15.89ZM195.94,307.25c-.84,0-1.41-.68-1.28-1.52.13-.81.92-1.49,1.75-1.49s1.38.68,1.25,1.49c-.13.84-.92,1.52-1.73,1.52Z"/>
        <path class="cls-9" d="M199.5,318.8l-.07.46c-.25,1.58-.58,5.42,1.62,5.42,1.77,0,2.41-2.48,2.61-3.75h2.08c-.41,2.42-1.85,5.64-4.8,5.64-4.18,0-3.95-4.96-3.45-8.15.45-2.85,1.93-8.24,5.77-8.24s3.53,4.86,3.09,7.65l-.15.96h-6.69ZM204.42,317.1v-.28c.19-1.52.64-4.74-1.47-4.74-1.92,0-2.92,3.59-3.15,5.02h4.62Z"/>
        <path class="cls-9" d="M211.65,311.71c.95-.93,2.13-1.52,3.37-1.52,2.82,0,2.65,2.6,2.31,4.77l-1.8,11.37h-2.01l1.77-11.15c.3-1.89.41-3.35-1.27-3.35-2.29,0-2.78,2.51-3.05,4.18l-1.63,10.32h-2.01l2.52-15.89h2.01l-.2,1.27Z"/>
        <path class="cls-9" d="M226.02,312.3h-2.63l-2.22,14.03h-2.01l2.22-14.03h-1.7l.29-1.86h1.7l.69-4.34h2.01l-.69,4.34h2.63l-.29,1.86Z"/>
        <path class="cls-9" d="M234.72,318.37c-.48,3-1.67,8.21-5.85,8.21s-3.73-5.2-3.25-8.21c.47-2.97,1.67-8.18,5.85-8.18s3.73,5.2,3.26,8.18ZM227.69,318.37c-.24,1.55-.94,6.32,1.48,6.32s3.23-4.77,3.48-6.32c.24-1.52.94-6.29-1.48-6.29s-3.23,4.77-3.47,6.29Z"/>
        <path class="cls-9" d="M244.45,332.4h-2.11l2.61-6.5-1.33-15.46h2.04l.63,12.82h.09c.49-1.36.96-2.73,1.48-4.09l3.43-8.74h2.11l-8.96,21.96Z"/>
        <path class="cls-9" d="M266.68,312.3h-2.63l-2.22,14.03h-2.01l2.22-14.03h-1.7l.29-1.86h1.7l.69-4.34h2.01l-.69,4.34h2.63l-.29,1.86Z"/>
        <path class="cls-9" d="M268.28,318.8l-.07.46c-.25,1.58-.58,5.42,1.62,5.42,1.76,0,2.41-2.48,2.61-3.75h2.08c-.41,2.42-1.85,5.64-4.8,5.64-4.18,0-3.95-4.96-3.45-8.15.45-2.85,1.93-8.24,5.77-8.24s3.53,4.86,3.09,7.65l-.15.96h-6.69ZM273.2,317.1v-.28c.19-1.52.64-4.74-1.47-4.74-1.92,0-2.92,3.59-3.15,5.02h4.62Z"/>
        <path class="cls-9" d="M284.57,313.13c-.41-.53-.98-1.05-1.75-1.05-2.6,0-3.57,4.52-3.86,6.35-.25,1.58-.65,6.26,1.73,6.26.93,0,1.63-.71,2.21-1.43h.06l-.4,2.51c-.67.5-1.65.8-2.42.8-3.66,0-3.74-5.14-3.31-7.87.48-3,1.97-8.52,6-8.52.74,0,1.51.22,2.1.62l-.37,2.32Z"/>
        <path class="cls-9" d="M289.04,311.71c.95-.93,2.13-1.52,3.37-1.52,2.82,0,2.65,2.6,2.31,4.77l-1.8,11.37h-2.01l1.77-11.15c.3-1.89.41-3.35-1.27-3.35-2.29,0-2.78,2.51-3.05,4.18l-1.63,10.32h-2.01l2.52-15.89h2.01l-.2,1.27Z"/>
        <path class="cls-9" d="M305.6,318.37c-.48,3-1.67,8.21-5.85,8.21s-3.73-5.2-3.25-8.21c.47-2.97,1.67-8.18,5.85-8.18s3.73,5.2,3.26,8.18ZM298.57,318.37c-.24,1.55-.94,6.32,1.48,6.32s3.23-4.77,3.48-6.32c.24-1.52.94-6.29-1.48-6.29s-3.23,4.77-3.47,6.29Z"/>
        <path class="cls-9" d="M308.71,326.33h-2.01l3.93-24.78h2.01l-3.93,24.78Z"/>
        <path class="cls-9" d="M321.4,318.37c-.48,3-1.67,8.21-5.85,8.21s-3.73-5.2-3.25-8.21c.47-2.97,1.67-8.18,5.85-8.18s3.73,5.2,3.26,8.18ZM314.37,318.37c-.24,1.55-.94,6.32,1.48,6.32s3.23-4.77,3.48-6.32c.24-1.52.94-6.29-1.48-6.29s-3.23,4.77-3.47,6.29Z"/>
        <path class="cls-9" d="M330.57,326.92c-.47,2.97-1.03,5.73-5.06,5.73-2.79,0-3.82-1.67-3.39-4.4l.09-.59h1.98l-.04.28c-.24,1.49-.04,2.82,1.69,2.82,2.26,0,2.39-1.98,2.66-3.69l.29-1.86c-.8.77-1.7,1.11-2.75,1.11-3.96,0-3.16-5.48-2.71-8.3.42-2.66,1.55-7.84,5.24-7.84,1.08,0,1.9.5,2.36,1.33h.06l.17-1.09h2.01l-2.61,16.48ZM326.87,324.69c2.14,0,2.73-3.13,3.28-6.6.46-2.91.81-6.26-1.39-6.26-1.46,0-2.51.99-3.43,6.81-.28,1.74-.99,6.04,1.55,6.04Z"/>
        <path class="cls-9" d="M335.46,326.33h-2.01l2.52-15.89h2.01l-2.52,15.89ZM339.43,303.1l1.41,1.49-4.6,3.63-.84-.93,4.04-4.18Z"/>
        <path class="cls-9" d="M346.27,326.33h-2.01l.2-1.24h-.06c-.73.9-1.72,1.49-2.87,1.49-2.54,0-3.55-1.42-2.45-8.36.57-3.56,1.4-8.02,5.24-8.02,1.12,0,1.75.46,2.24,1.33h.06l.17-1.09h2.01l-2.52,15.89ZM344.51,311.83c-2.23,0-2.91,3.53-3.34,6.23-1.04,6.57,0,6.88,1.17,6.88,1.95,0,2.61-1.83,3.4-6.81.55-3.44.75-6.29-1.23-6.29Z"/>
      </g>
      <g>
        <g>
          <path class="cls-1" d="M52.76,225.99c-5.03-3.41-12.56-5.12-22.61-5.12-8.98,0-15.88,2.07-20.73,6.19-4.31,3.59-6.82,8.17-7.54,13.73h18.04c.9-1.97,2.33-3.32,4.31-4.04,1.97-.72,4.21-1.08,6.73-1.08,2.33,0,4.89.4,7.67,1.21,2.78.81,4.17,2.56,4.17,5.25,0,3.59-3.95,5.92-11.85,7-1.62.18-3.05.4-4.31.67-1.26.27-2.33.4-3.23.4-6.82,1.08-12.43,3.23-16.83,6.46-4.4,3.23-6.6,8.61-6.6,16.15,0,8.08,2.42,13.86,7.27,17.36,4.85,3.5,10.5,5.25,16.96,5.25,3.23,0,6.95-.23,11.17-.67,4.22-.45,8.21-1.66,11.98-3.63,3.59-1.79,6.68-4.71,9.29-8.75,2.6-4.04,3.9-9.65,3.9-16.83v-24.5c0-6.46-2.6-11.48-7.81-15.08ZM43.07,264.76c0,5.03-1.44,8.98-4.31,11.85-2.87,2.87-6.82,4.31-11.84,4.31-3.05,0-5.38-.72-7-2.15-1.61-1.62-2.42-3.77-2.42-6.46,0-1.97.63-3.95,1.88-5.92,1.44-1.43,3.77-2.6,7-3.5l6.19-1.35c4.48-1.07,7.98-2.24,10.5-3.5v6.73Z"/>
          <path class="cls-1" d="M127.6,222.49h-22.61l-22.88,26.38v-38.5c0-2.33-.9-4.4-2.69-6.19-1.8-1.79-3.95-2.69-6.46-2.69h-9.69v92.61h18.84v-27.19c0-1.43.98-2.51,2.96-3.23,1.97-.72,4.31,1.35,7,6.19l13.19,24.23h22.61l-25.84-44.15,25.57-27.46Z"/>
          <path class="cls-1" d="M167.54,222.49c-4.85,0-9.56.63-14.13,1.89-4.58,1.26-8.57,3.23-11.98,5.92-3.59,2.87-6.42,6.69-8.48,11.44-2.07,4.76-3.1,10.63-3.1,17.63v34.73h18.84v-36.88c0-5.38,1.25-9.33,3.77-11.85,2.51-2.51,6.37-3.77,11.58-3.77h6.19v-19.11h-2.69Z"/>
          <path class="cls-1" d="M183.43,222.49h-9.69v71.61h18.84v-62.46c0-2.51-.9-4.67-2.69-6.46-1.8-1.79-3.95-2.69-6.46-2.69Z"/>
          <path class="cls-1" d="M183.43,201.49h-9.69v14.81h18.84v-5.65c0-2.51-.9-4.66-2.69-6.46-1.8-1.79-3.95-2.69-6.46-2.69Z"/>
          <path class="cls-1" d="M234.65,220.88c-4.67,0-8.61.9-11.85,2.69-3.77,2.16-6.64,4.94-8.61,8.34v-21.54c0-2.51-.9-4.67-2.69-6.46-1.8-1.79-3.95-2.69-6.46-2.69h-9.15v61.65c0,12.75,3.68,21.36,11.04,25.85,7.36,4.49,15.34,6.73,23.96,6.73,4.48,0,9.02-.77,13.59-2.29,4.58-1.52,8.21-3.99,10.9-7.4,5.38-7,8.08-16.06,8.08-27.19s-2.69-20.19-8.08-27.19c-5.38-7-12.3-10.5-20.73-10.5ZM240.84,274.18c-2.69,3.77-6.55,5.65-11.58,5.65s-8.62-1.88-11.31-5.65c-2.52-3.41-3.77-8.88-3.77-16.42,0-6.46,1.35-11.58,4.04-15.35,2.69-3.59,6.55-5.38,11.57-5.38,4.67,0,8.35,1.88,11.04,5.65,2.69,3.59,4.04,8.61,4.04,15.08,0,7.18-1.35,12.65-4.04,16.42Z"/>
          <path class="cls-1" d="M275.49,222.49h-9.69v71.61h18.84v-62.46c0-2.51-.9-4.67-2.69-6.46-1.8-1.79-3.95-2.69-6.46-2.69Z"/>
          <path class="cls-1" d="M275.49,201.49h-9.69v14.81h18.84v-5.65c0-2.51-.9-4.66-2.69-6.46-1.8-1.79-3.95-2.69-6.46-2.69Z"/>
          <path class="cls-1" d="M345.28,258.29c-3.59-3.05-9.96-5.74-19.11-8.08-.72,0-1.48-.09-2.29-.27-.81-.18-1.75-.45-2.83-.81-9.33-1.97-14-4.4-14-7.27,0-2.16.81-3.77,2.42-4.85,1.79-1.08,4.48-1.61,8.08-1.61,3.77,0,6.73.81,8.88,2.42.72.72,1.44,1.44,2.15,2.15,1.79,3.05,4.4,4.58,7.81,4.58h11.58c-.36-7.18-3.14-13.01-8.34-17.5-5.57-4.13-13.02-6.19-22.34-6.19-8.62,0-15.61,2.07-21,6.19-5.21,4.49-7.81,10.14-7.81,16.96,0,5.38,1.79,9.69,5.38,12.92,3.23,3.23,9.6,6.01,19.11,8.35,1.61.54,4.04,1.08,7.27,1.61,7.54,1.62,11.31,4.04,11.31,7.27,0,2.15-1.08,3.86-3.23,5.12-2.33,1.26-5.12,1.88-8.35,1.88-4.49,0-8.08-.9-10.77-2.69-2.52-1.79-3.86-4.48-4.04-8.08h-18.31v.81c0,7.9,2.6,13.91,7.81,18.04,5.02,4.13,12.65,6.19,22.88,6.19,10.77,0,18.84-1.97,24.23-5.92,5.74-4.31,8.61-10.41,8.61-18.31,0-5.38-1.71-9.69-5.12-12.92Z"/>
        </g>
        <path class="cls-5" d="M189.91,12.76c-2.13-.58-11.91-.79-11.91-.79-2.78,0-5.06,2.28-5.06,5.06v66.32c0,2.78,2.28,5.86,5.06,5.86l67.29.09c2.78,0,4.94-3.67,5.06-5.38-.13-3.31-.88-12.44-.88-12.44l-59.56-58.72Z"/>
        <circle class="cls-5" cx="218.38" cy="44.06" r="44.06" transform="translate(-1.42 7.72) rotate(-2.02)"/>
        <path class="cls-10" d="M254.65,43.36c0,20.35-16.5,36.85-36.85,36.85s-36.85-16.5-36.85-36.85S197.46,6.51,217.81,6.51s36.85,16.5,36.85,36.85Z"/>
        <path class="cls-3" d="M239.24,58.37c-1.25-2.22-13.61-20.81-13.61-20.81l.09-5.42s3.6.45,3.65-3.56c.04-3.62-4.81-3.07-4.81-3.07,0,0,.9-3.95,1.21-5.86.09-.55.03-3.61-3.17-3.61h-10.75s-3.32.54-2.6,4.01c.71,3.47,1.21,5.41,1.21,5.41,0,0-4.66-.86-4.66,3.48,0,3.48,3.63,3.26,3.63,3.26l-.07,5.27-13.87,21.34s-.87,2.51.09,4.47c1.54,3.16,4.76,3.25,4.76,3.25h34.65s2.78-.16,4.12-2.42c1.39-2.33,1.38-3.52.13-5.74ZM233.65,60.55c-.8,1.34-2.44,1.44-2.44,1.44h-27.22s-1.91-.05-2.82-1.92c-.57-1.17-.05-3.24-.05-3.24l11.63-16.79.04-9.22s-2.15.13-2.15-1.94c0-2.57,2.76-2.06,2.76-2.06,0,0-.3-2.79-.72-4.85-.42-2.06,1.54-2.38,1.54-2.38h6.38c1.9,0,1.93,1.82,1.88,2.14-.18,1.14-.72,5.12-.72,5.12,0,0,2.88-.33,2.85,1.82-.03,2.37-2.16,2.11-2.16,2.11l-.05,9.31s10.6,15.16,11.34,16.48c.74,1.32.74,2.6-.08,3.99Z"/>
        <path class="cls-6" d="M190.37,171.42c-2.13.58-11.91.79-11.91.79-2.78,0-5.06-2.28-5.06-5.06v-66.32c0-2.78,2.28-5.86,5.06-5.86l67.29-.09c2.78,0,4.94,3.67,5.06,5.38-.13,3.31-.88,12.44-.88,12.44l-59.56,58.72Z"/>
        <circle class="cls-6" cx="221.74" cy="142.88" r="44.06" transform="translate(-26.9 54.77) rotate(-13.28)"/>
        <g>
          <path class="cls-7" d="M248.66,168.05c13.9-14.87,13.11-38.19-1.75-52.08-14.87-13.9-38.19-13.11-52.08,1.75-13.9,14.87-13.11,38.19,1.75,52.08,14.86,13.9,38.18,13.11,52.08-1.75Z"/>
          <path class="cls-3" d="M246.68,156.94c.65-1.13.26-2.57-.87-3.23l-5.36-3.08,5.82-1.6c1.26-.35,2-1.65,1.65-2.9-.34-1.26-1.64-2-2.9-1.65l-10.33,2.84-3.62-2.08v-4.35s3.83-2.22,3.83-2.22l10.38,2.81c1.26.34,2.56-.41,2.9-1.66.34-1.26-.4-2.56-1.66-2.9l-5.84-1.58,5.64-3.26c1.13-.65,1.52-2.1.86-3.23-.12-.21-.27-.39-.44-.55-.74-.69-1.87-.85-2.79-.32l-5.45,3.15,1.5-5.63c.33-1.26-.42-2.56-1.68-2.89-1.26-.33-2.55.41-2.89,1.68l-2.71,10.18-4.02,2.32-3.83-2.2v-4.21s7.62-7.58,7.62-7.58c.92-.92.93-2.42,0-3.34-.92-.92-2.41-.93-3.34,0l-4.29,4.27v-6.52c0-1.3-1.06-2.36-2.37-2.36-.24,0-.47.04-.69.1-.97.3-1.67,1.2-1.67,2.26v6.3s-4.13-4.11-4.13-4.11c-.93-.92-2.42-.92-3.34.01-.92.92-.92,2.42,0,3.34l7.47,7.43v4.54s-3.66,2.13-3.66,2.13l-3.79-2.18-2.77-10.39c-.34-1.26-1.64-2.01-2.89-1.67-1.26.34-2.01,1.63-1.67,2.89l1.56,5.85-5.65-3.25c-1.13-.65-2.57-.26-3.22.87-.12.21-.2.43-.26.65-.23.99.2,2.04,1.13,2.58l5.46,3.14-5.62,1.53c-1.26.34-2,1.64-1.66,2.9.34,1.26,1.64,2,2.9,1.66l10.16-2.76,4.03,2.32v4.21s-3.77,2.18-3.77,2.18l-10.21-2.74c-1.26-.34-2.56.41-2.89,1.67-.34,1.26.41,2.56,1.67,2.9l5.65,1.52-5.19,3c-1.13.65-1.52,2.1-.86,3.23.65,1.13,2.1,1.52,3.23.86l5.36-3.1-1.53,5.83c-.33,1.26.42,2.55,1.68,2.88,1.26.33,2.55-.42,2.89-1.68l2.73-10.36,3.62-2.09,3.62,2.08v4.59s-7.47,7.47-7.47,7.47c-.92.92-.92,2.42,0,3.34.92.92,2.42.92,3.34,0l4.13-4.13v5.99c0,1.3,1.06,2.36,2.37,2.36,1.3,0,2.36-1.06,2.36-2.36v-6.19s4.28,4.24,4.28,4.24c.93.92,2.42.91,3.34-.02.91-.92.91-2.42-.02-3.34l-7.61-7.54v-4.28s3.78-2.19,3.78-2.19l3.83,2.2,2.75,10.21c.34,1.26,1.64,2,2.89,1.67,1.26-.34,2.01-1.63,1.67-2.89l-1.52-5.65,5.2,2.99c1.13.65,2.57.26,3.22-.87ZM222.41,147.08l-3.63-2.08v-4.18s3.61-2.1,3.61-2.1l3.63,2.08v4.18s-3.61,2.1-3.61,2.1Z"/>
        </g>
        <g>
          <path class="cls-10" d="M149.87,18c2.13-.58,11.91-.79,11.91-.79,2.78,0,5.06,2.28,5.06,5.06v66.32c0,2.78-2.28,5.86-5.06,5.86l-67.29.09c-2.78,0-4.94-3.67-5.06-5.38.13-3.31.88-12.44.88-12.44l59.56-58.72Z"/>
          <g>
            <circle class="cls-10" cx="118.73" cy="46.15" r="44.06" transform="translate(-.54 1.43) rotate(-.69)"/>
            <circle class="cls-2" cx="119.03" cy="46.46" r="37.15" transform="translate(48.3 152.87) rotate(-77.71)"/>
            <g>
              <circle class="cls-3" cx="119.03" cy="46.46" r="11.4" transform="translate(49.2 153.47) rotate(-78.19)"/>
              <g>
                <rect class="cls-3" x="118.34" y="11.76" width="1.38" height="10.51"/>
                <rect class="cls-3" x="118.34" y="70.78" width="1.38" height="10.51"/>
                <polygon class="cls-3" points="123.83 15.78 122.46 15.6 122.92 11.98 124.29 12.16 123.83 15.78"/>
                <polygon class="cls-3" points="115.12 81.09 113.75 80.91 114.22 77.17 115.59 77.35 115.12 81.09"/>
                <polygon class="cls-3" points="127.84 16.68 126.51 16.32 127.44 12.79 128.77 13.15 127.84 16.68"/>
                <polygon class="cls-3" points="110.6 80.27 109.27 79.91 110.24 76.27 111.57 76.63 110.6 80.27"/>
                <polygon class="cls-3" points="131.66 18.09 130.39 17.56 131.77 14.18 133.04 14.71 131.66 18.09"/>
                <polygon class="cls-3" points="106.27 78.88 105 78.35 106.43 74.86 107.71 75.39 106.27 78.88"/>
                <polygon class="cls-3" points="138.63 22.36 137.54 21.51 139.76 18.61 140.85 19.45 138.63 22.36"/>
                <polygon class="cls-3" points="98.29 74.45 97.2 73.6 99.49 70.61 100.58 71.45 98.29 74.45"/>
                <polygon class="cls-3" points="141.59 25.08 140.61 24.11 143.18 21.51 144.16 22.49 141.59 25.08"/>
                <polygon class="cls-3" points="94.87 71.54 93.9 70.56 96.56 67.89 97.53 68.87 94.87 71.54"/>
                <polygon class="cls-3" points="144.13 28.12 143.29 27.03 146.17 24.78 147.01 25.88 144.13 28.12"/>
                <polygon class="cls-3" points="91.89 68.27 91.05 67.17 94.02 64.86 94.87 65.95 91.89 68.27"/>
                <polygon class="cls-3" points="148.03 35.24 147.5 33.96 150.86 32.54 151.4 33.81 148.03 35.24"/>
                <polygon class="cls-3" points="87.19 60.51 86.66 59.24 90.14 57.77 90.67 59.05 87.19 60.51"/>
                <polygon class="cls-3" points="149.29 39.24 148.93 37.91 152.46 36.95 152.81 38.29 149.29 39.24"/>
                <polygon class="cls-3" points="85.6 56.1 85.24 54.76 88.88 53.78 89.24 55.11 85.6 56.1"/>
                <polygon class="cls-3" points="149.97 43.16 149.79 41.79 153.4 41.28 153.59 42.65 149.97 43.16"/>
                <polygon class="cls-3" points="84.65 51.76 84.47 50.4 88.21 49.88 88.39 51.25 84.65 51.76"/>
                <polygon class="cls-3" points="149.8 51.2 149.97 49.83 153.6 50.27 153.43 51.64 149.8 51.2"/>
                <polygon class="cls-3" points="84.46 42.77 84.63 41.41 88.38 41.87 88.2 43.24 84.46 42.77"/>
                <polygon class="cls-3" points="148.91 55.22 149.27 53.89 152.8 54.8 152.45 56.14 148.91 55.22"/>
                <polygon class="cls-3" points="85.25 38.24 85.61 36.91 89.26 37.86 88.9 39.19 85.25 38.24"/>
                <polygon class="cls-3" points="147.5 59.1 148.03 57.82 151.41 59.2 150.88 60.47 147.5 59.1"/>
                <polygon class="cls-3" points="86.64 33.85 87.17 32.57 90.67 34 90.14 35.27 86.64 33.85"/>
                <polygon class="cls-3" points="143.34 65.96 144.18 64.86 147.09 67.06 146.26 68.15 143.34 65.96"/>
                <polygon class="cls-3" points="90.96 25.99 91.8 24.89 94.81 27.16 93.97 28.26 90.96 25.99"/>
                <polygon class="cls-3" points="140.6 68.96 141.57 67.98 144.18 70.54 143.21 71.52 140.6 68.96"/>
                <polygon class="cls-3" points="93.88 22.51 94.85 21.53 97.54 24.18 96.57 25.16 93.88 22.51"/>
                <polygon class="cls-3" points="137.49 71.58 138.59 70.73 140.84 73.61 139.75 74.45 137.49 71.58"/>
                <polygon class="cls-3" points="97.22 19.44 98.31 18.59 100.63 21.57 99.54 22.41 97.22 19.44"/>
                <polygon class="cls-3" points="130.4 75.49 131.68 74.96 133.11 78.32 131.84 78.85 130.4 75.49"/>
                <polygon class="cls-3" points="104.94 14.73 106.22 14.19 107.7 17.67 106.42 18.2 104.94 14.73"/>
                <polygon class="cls-3" points="126.45 76.75 127.79 76.39 128.77 79.91 127.43 80.27 126.45 76.75"/>
                <polygon class="cls-3" points="109.29 13.14 110.63 12.78 111.63 16.42 110.3 16.78 109.29 13.14"/>
                <polygon class="cls-3" points="122.41 77.46 123.78 77.28 124.28 80.9 122.91 81.08 122.41 77.46"/>
                <polygon class="cls-3" points="113.78 12.15 115.15 11.97 115.66 15.7 114.29 15.89 113.78 12.15"/>
                <polygon class="cls-3" points="134.23 21.71 133.03 21.02 135.91 16.12 137.11 16.82 134.23 21.71"/>
                <polygon class="cls-3" points="102.14 76.92 100.95 76.23 103.88 71.24 105.07 71.93 102.14 76.92"/>
                <polygon class="cls-3" points="144.56 32.57 143.87 31.38 148.81 28.57 149.5 29.76 144.56 32.57"/>
                <polygon class="cls-3" points="89.25 64.48 88.56 63.29 93.58 60.42 94.27 61.61 89.25 64.48"/>
                <polygon class="cls-3" points="143.89 61.64 144.58 60.45 149.48 63.31 148.79 64.51 143.89 61.64"/>
                <polygon class="cls-3" points="88.57 29.73 89.26 28.54 94.26 31.45 93.57 32.65 88.57 29.73"/>
                <polygon class="cls-3" points="133.09 72 134.28 71.3 137.11 76.22 135.92 76.92 133.09 72"/>
                <polygon class="cls-3" points="100.94 16.82 102.13 16.13 105.02 21.14 103.83 21.84 100.94 16.82"/>
                <rect class="cls-3" x="143.28" y="45.83" width="10.51" height="1.38"/>
                <rect class="cls-3" x="84.26" y="45.83" width="10.51" height="1.38"/>
              </g>
            </g>
          </g>
        </g>
        <path class="cls-8" d="M140.55,174.95c2.24.63,8.09,3.29,20.58,3.15,2.78-.03,5.6-2.5,5.6-5.28v-66.32c0-2.78-2.28-5.86-5.06-5.86l-67.3-.09c-2.78,0-4.94,3.67-5.06,5.38.13,3.31.88,12.44.88,12.44l50.35,56.59Z"/>
        <g>
          <circle class="cls-8" cx="122.67" cy="144.61" r="44.06" transform="translate(-1.94 1.67) rotate(-.77)"/>
          <path class="cls-4" d="M85.82,144.61c0-20.35,16.5-36.85,36.85-36.85s36.85,16.5,36.85,36.85-16.5,36.85-36.85,36.85-36.85-16.5-36.85-36.85Z"/>
          <path class="cls-3" d="M148.48,141.79l-.83-4.33c-.23-1.18-1.37-1.95-2.55-1.72l-3.23.62c-.76-1.77-1.76-3.4-2.96-4.87l2.05-2.57c.75-.94.59-2.31-.35-3.07l-3.44-2.74c-.94-.75-2.31-.59-3.06.35l-2.06,2.58c-1.48-.73-3.05-1.3-4.71-1.66v-3.29c0-1.2-.98-2.18-2.18-2.18h-4.4c-1.2,0-2.18.98-2.18,2.18v3.29c-1.97.43-3.83,1.13-5.54,2.07l-2.21-2.55c-.79-.91-2.17-1.01-3.08-.22l-3.33,2.88c-.91.79-1.01,2.17-.22,3.07l2.25,2.6c-1.1,1.48-2,3.11-2.68,4.85l-3.37-.53c-1.19-.18-2.3.63-2.49,1.82l-.68,4.35c-.19,1.19.63,2.3,1.82,2.49l3.39.53c.12,1.89.48,3.72,1.08,5.44l-2.89,1.76c-1.03.63-1.35,1.97-.73,3l2.29,3.76c.63,1.03,1.97,1.35,2.99.72l2.9-1.76c1.24,1.29,2.64,2.42,4.18,3.36l-1.09,3.17c-.39,1.14.21,2.38,1.35,2.77l4.16,1.44c1.14.39,2.38-.22,2.77-1.36l1.09-3.16c.79.09,1.59.15,2.4.15,1.05,0,2.07-.1,3.08-.26l1.18,3.09c.43,1.13,1.69,1.69,2.82,1.26l4.11-1.57c1.12-.43,1.69-1.69,1.25-2.81l-1.18-3.08c1.54-1.01,2.92-2.23,4.14-3.6l2.89,1.61c1.05.59,2.38.21,2.97-.84l2.15-3.85c.58-1.05.21-2.38-.85-2.96l-2.87-1.6c.52-1.73.81-3.57.86-5.46l3.24-.63c1.18-.23,1.96-1.37,1.73-2.55ZM107.98,144.48c0-8.27,6.71-14.98,14.98-14.98s14.98,6.71,14.98,14.98-6.71,14.98-14.98,14.98-14.98-6.71-14.98-14.98Z"/>
        </g>
      </g>
    </g>
  </g>
</svg>