<?xml version="1.0" encoding="UTF-8"?>
<svg id="Layer_2" data-name="Layer 2" xmlns="http://www.w3.org/2000/svg" viewBox="0 0 404.5 317.51">
  <defs>
    <style>
      .cls-1 {
        fill: #005c70;
      }

      .cls-2 {
        fill: #fcc800;
      }

      .cls-3 {
        fill: #fff;
      }

      .cls-4 {
        fill: #999;
      }

      .cls-5 {
        fill: #ef7f19;
      }
    </style>
  </defs>
  <g id="Color_Negro_Blanco" data-name="Color Negro Blanco">
    <rect class="cls-3" width="404.5" height="317.51"/>
    <g>
      <g>
        <path class="cls-5" d="M243.24,26.97c3.58-.98,19.98-1.33,19.98-1.33,4.67,0,8.49,3.82,8.49,8.49v111.22c0,4.67-3.82,9.83-8.49,9.83l-112.85.14c-4.67,0-8.28-6.15-8.49-9.02.21-5.56,1.48-20.86,1.48-20.86L243.24,26.97Z"/>
        <g>
          <circle class="cls-5" cx="191.02" cy="74.18" r="73.89" transform="translate(-.87 2.29) rotate(-.69)"/>
          <circle class="cls-2" cx="191.53" cy="74.69" r="62.3" transform="translate(3.28 157.31) rotate(-45)"/>
          <g>
            <circle class="cls-3" cx="191.53" cy="74.69" r="19.12" transform="translate(79.23 246.88) rotate(-78.19)"/>
            <g>
              <rect class="cls-3" x="190.36" y="16.49" width="2.31" height="17.63"/>
              <rect class="cls-3" x="190.36" y="115.47" width="2.31" height="17.63"/>
              <polygon class="cls-3" points="199.57 23.25 197.28 22.94 198.05 16.87 200.34 17.17 199.57 23.25"/>
              <polygon class="cls-3" points="184.96 132.76 182.67 132.46 183.47 126.18 185.76 126.49 184.96 132.76"/>
              <polygon class="cls-3" points="206.29 24.76 204.06 24.15 205.62 18.23 207.86 18.83 206.29 24.76"/>
              <polygon class="cls-3" points="177.39 131.39 175.16 130.79 176.78 124.68 179.01 125.28 177.39 131.39"/>
              <polygon class="cls-3" points="212.71 27.11 210.57 26.22 212.89 20.55 215.03 21.44 212.71 27.11"/>
              <polygon class="cls-3" points="170.13 129.07 167.99 128.17 170.4 122.32 172.54 123.21 170.13 129.07"/>
              <polygon class="cls-3" points="224.4 34.27 222.56 32.85 226.28 27.98 228.11 29.4 224.4 34.27"/>
              <polygon class="cls-3" points="156.75 121.62 154.92 120.21 158.76 115.18 160.59 116.6 156.75 121.62"/>
              <polygon class="cls-3" points="229.35 38.85 227.72 37.2 232.03 32.85 233.66 34.49 229.35 38.85"/>
              <polygon class="cls-3" points="151.01 116.75 149.37 115.11 153.83 110.62 155.47 112.26 151.01 116.75"/>
              <polygon class="cls-3" points="233.62 43.94 232.21 42.11 237.03 38.34 238.45 40.18 233.62 43.94"/>
              <polygon class="cls-3" points="146.01 111.26 144.59 109.43 149.59 105.54 151 107.38 146.01 111.26"/>
              <polygon class="cls-3" points="240.16 55.87 239.27 53.73 244.91 51.34 245.8 53.48 240.16 55.87"/>
              <polygon class="cls-3" points="138.13 98.26 137.24 96.12 143.07 93.66 143.96 95.8 138.13 98.26"/>
              <polygon class="cls-3" points="242.27 62.59 241.67 60.35 247.58 58.75 248.18 60.98 242.27 62.59"/>
              <polygon class="cls-3" points="135.46 90.85 134.86 88.62 140.97 86.96 141.56 89.2 135.46 90.85"/>
              <polygon class="cls-3" points="243.41 69.15 243.11 66.86 249.17 66.01 249.48 68.31 243.41 69.15"/>
              <polygon class="cls-3" points="133.87 83.58 133.56 81.29 139.83 80.42 140.14 82.72 133.87 83.58"/>
              <polygon class="cls-3" points="243.12 82.64 243.42 80.35 249.5 81.08 249.2 83.38 243.12 82.64"/>
              <polygon class="cls-3" points="133.54 68.51 133.84 66.22 140.12 66.99 139.82 69.28 133.54 68.51"/>
              <polygon class="cls-3" points="241.64 89.39 242.23 87.15 248.16 88.68 247.56 90.92 241.64 89.39"/>
              <polygon class="cls-3" points="134.88 60.91 135.48 58.67 141.6 60.27 141 62.51 134.88 60.91"/>
              <polygon class="cls-3" points="239.27 95.89 240.15 93.74 245.83 96.05 244.94 98.19 239.27 95.89"/>
              <polygon class="cls-3" points="137.21 53.54 138.1 51.4 143.96 53.79 143.07 55.93 137.21 53.54"/>
              <polygon class="cls-3" points="232.29 107.4 233.69 105.55 238.59 109.23 237.18 111.07 232.29 107.4"/>
              <polygon class="cls-3" points="144.46 40.36 145.86 38.52 150.91 42.33 149.51 44.17 144.46 40.36"/>
              <polygon class="cls-3" points="227.69 112.43 229.33 110.78 233.7 115.07 232.07 116.71 227.69 112.43"/>
              <polygon class="cls-3" points="149.34 34.53 150.97 32.88 155.48 37.32 153.85 38.97 149.34 34.53"/>
              <polygon class="cls-3" points="222.49 116.81 224.32 115.4 228.1 120.22 226.27 121.63 222.49 116.81"/>
              <polygon class="cls-3" points="154.95 29.38 156.78 27.96 160.67 32.95 158.84 34.36 154.95 29.38"/>
              <polygon class="cls-3" points="210.6 123.38 212.74 122.49 215.14 128.12 213.01 129.01 210.6 123.38"/>
              <polygon class="cls-3" points="167.9 21.48 170.04 20.58 172.52 26.4 170.38 27.3 167.9 21.48"/>
              <polygon class="cls-3" points="203.98 125.49 206.22 124.88 207.85 130.79 205.62 131.39 203.98 125.49"/>
              <polygon class="cls-3" points="175.2 18.81 177.43 18.21 179.12 24.31 176.88 24.92 175.2 18.81"/>
              <polygon class="cls-3" points="197.19 126.68 199.49 126.38 200.33 132.45 198.04 132.75 197.19 126.68"/>
              <polygon class="cls-3" points="182.72 17.15 185.01 16.85 185.88 23.11 183.58 23.42 182.72 17.15"/>
              <polygon class="cls-3" points="217.01 33.19 215.01 32.02 219.84 23.82 221.84 24.98 217.01 33.19"/>
              <polygon class="cls-3" points="163.2 125.78 161.2 124.62 166.11 116.25 168.12 117.41 163.2 125.78"/>
              <polygon class="cls-3" points="234.34 51.4 233.19 49.4 241.46 44.69 242.62 46.69 234.34 51.4"/>
              <polygon class="cls-3" points="141.58 104.91 140.42 102.91 148.85 98.09 150 100.1 141.58 104.91"/>
              <polygon class="cls-3" points="233.21 100.16 234.37 98.15 242.59 102.95 241.43 104.96 233.21 100.16"/>
              <polygon class="cls-3" points="140.45 46.64 141.6 44.64 149.99 49.52 148.83 51.53 140.45 46.64"/>
              <polygon class="cls-3" points="215.1 117.52 217.1 116.35 221.85 124.61 219.85 125.77 215.1 117.52"/>
              <polygon class="cls-3" points="161.19 24.99 163.18 23.83 168.04 32.23 166.03 33.4 161.19 24.99"/>
              <rect class="cls-3" x="232.19" y="73.64" width="17.63" height="2.31"/>
              <rect class="cls-3" x="133.21" y="73.64" width="17.63" height="2.31"/>
            </g>
          </g>
        </g>
      </g>
      <g>
        <path class="cls-1" d="M53.12,201.75c-5.03-3.41-12.57-5.12-22.62-5.12-8.98,0-15.89,2.07-20.74,6.19-4.31,3.59-6.83,8.17-7.54,13.74h18.04c.9-1.97,2.33-3.32,4.31-4.04,1.97-.72,4.22-1.08,6.73-1.08,2.33,0,4.89.4,7.68,1.21,2.78.81,4.17,2.56,4.17,5.25,0,3.59-3.95,5.92-11.85,7-1.62.18-3.05.4-4.31.67-1.26.27-2.34.4-3.23.4-6.83,1.08-12.43,3.23-16.83,6.46-4.4,3.23-6.6,8.62-6.6,16.16,0,8.08,2.42,13.87,7.27,17.37,4.85,3.5,10.5,5.25,16.97,5.25,3.23,0,6.96-.23,11.18-.67,4.22-.45,8.21-1.66,11.98-3.64,3.59-1.79,6.69-4.71,9.29-8.75,2.6-4.04,3.91-9.65,3.9-16.83v-24.51c0-6.46-2.61-11.49-7.81-15.08ZM43.43,240.53c0,5.03-1.44,8.98-4.31,11.85-2.87,2.87-6.83,4.31-11.85,4.31-3.05,0-5.39-.72-7-2.15-1.62-1.62-2.42-3.77-2.42-6.46,0-1.97.63-3.95,1.89-5.93,1.43-1.43,3.77-2.6,7-3.5l6.19-1.35c4.49-1.08,7.99-2.24,10.5-3.5v6.73Z"/>
        <path class="cls-1" d="M128.43,198.24h-22.62s-22.89,26.39-22.89,26.39v-26.39s0-12.12,0-12.12c0-2.33-.9-4.4-2.69-6.19-1.8-1.79-3.95-2.69-6.46-2.69h-9.7s0,92.64,0,92.64h18.85s0-17.24,0-17.24v-9.97c0-1.43.98-2.51,2.96-3.23,1.97-.72,4.31,1.35,7,6.19l13.2,24.24h22.62s-25.86-44.17-25.86-44.17l25.58-27.47Z"/>
        <path class="cls-1" d="M168.04,198.24c-4.85,0-9.56.63-14.14,1.88-4.58,1.26-8.58,3.23-11.98,5.93-3.59,2.87-6.42,6.69-8.48,11.45-2.07,4.76-3.1,10.64-3.1,17.64v34.74s18.85,0,18.85,0v-36.9c0-5.39,1.25-9.33,3.77-11.85,2.51-2.51,6.37-3.77,11.58-3.77h6.19s0-19.12,0-19.12h-1.35c-.54,0-.99,0-1.35,0Z"/>
        <path class="cls-1" d="M183.93,198.24h-9.69s0,71.64,0,71.64h18.85s0-62.48,0-62.48c0-2.51-.9-4.67-2.69-6.46-1.8-1.79-3.95-2.69-6.46-2.69Z"/>
        <path class="cls-1" d="M183.93,177.24h-9.69s0,14.81,0,14.81h18.85s0-5.66,0-5.66c0-2.51-.9-4.67-2.69-6.46-1.8-1.79-3.95-2.69-6.46-2.69Z"/>
        <path class="cls-1" d="M292.48,202.82c-6.64-4.13-13.92-6.19-21.81-6.19-3.95.18-7.77.77-11.44,1.75-3.68.99-6.87,2.65-9.56,4.98-3.23-2.69-6.83-4.49-10.77-5.39-3.95-.9-7.99-1.35-12.12-1.35-7.72.36-14.77,2.6-21.14,6.73-6.37,4.13-9.56,12.3-9.56,24.51v42.01s18.85,0,18.85,0v-45.78c0-4.31,1.25-7.45,3.77-9.43,2.51-1.97,5.39-2.96,8.62-2.96s6.15.99,8.75,2.96c2.6,1.98,3.9,5.12,3.9,9.43v3.77s0,42.01,0,42.01h18.58s0-42.01,0-42.01v-3.77c0-4.31,1.3-7.45,3.9-9.43,2.6-1.97,5.52-2.96,8.75-2.96s6.15.99,8.75,2.96c2.6,1.98,3.91,5.12,3.91,9.43v36.63c0,2.69.85,4.89,2.56,6.6,1.7,1.71,3.9,2.56,6.6,2.56h9.43s0-42.01,0-42.01c0-12.56-3.33-20.91-9.97-25.05Z"/>
        <path class="cls-1" d="M337.68,196.63c-10.23,0-18.23,3.32-23.97,9.96-5.57,6.46-8.35,15.44-8.35,26.93,0,12.03,2.87,21.28,8.62,27.74,5.74,6.64,13.74,9.96,23.97,9.96,8.44,0,15.44-2.06,21.01-6.19,5.56-3.95,9.33-9.69,11.31-17.24h-13.47c-2.15,0-3.82.45-4.98,1.35-1.17.9-1.84,1.62-2.02,2.16-.54.54-1.04,1.03-1.48,1.48-.45.45-.94.77-1.48.94-2.15,1.26-4.76,1.89-7.81,1.89-4.67,0-8.17-1.43-10.5-4.31-2.52-2.69-3.86-6.82-4.04-12.39h46.59c.18-.36.27-.98.27-1.89,0-.18,0-.54,0-1.08s0-1.16,0-1.88c0-11.85-2.87-21.09-8.62-27.74-5.93-6.46-14.27-9.69-25.05-9.69ZM324.49,226.79c.18-4.67,1.52-8.26,4.04-10.77,2.51-2.51,5.74-3.77,9.69-3.77,4.31,0,7.63,1.26,9.97,3.77,2.15,2.34,3.41,5.93,3.77,10.77h-27.47Z"/>
        <path class="cls-1" d="M395.34,211.44c2.51,0,4.67-.85,6.46-2.56,1.79-1.7,2.69-3.91,2.69-6.6v-3.77s-11.04,0-11.04,0v-12.12c0-2.51-.9-4.67-2.69-6.46-1.8-1.79-3.86-2.69-6.19-2.69h-9.7s0,79.18,0,79.18c0,8.26,3.46,12.66,10.37,13.2,6.91.54,13.33.63,19.26.27v-14s-5.66,0-5.66,0c-3.59,0-5.39-1.52-5.39-4.58v-39.86s1.88,0,1.88,0Z"/>
      </g>
      <g>
        <path class="cls-4" d="M7.59,290.55h.07c.99-1.06,2.38-1.81,3.76-1.81,1.49,0,2.62.78,3.02,2.16,1.17-1.35,2.45-2.16,4.12-2.16,3.41,0,3.23,2.7,2.8,5.39l-2.06,13.09h-2.31l2.06-13.02c.28-1.74.39-3.58-1.49-3.58-2.73,0-3.3,3.09-3.65,5.39l-1.77,11.21h-2.31l2.06-12.98c.28-1.7.46-3.62-1.42-3.62-2.8,0-3.41,3.48-3.8,5.78l-1.7,10.82h-2.31l2.87-18.2h2.31l-.25,1.53Z"/>
        <path class="cls-4" d="M25.68,298.6l-.07.53c-.28,1.81-.67,6.21,1.84,6.21,2.02,0,2.77-2.84,3.02-4.29h2.38c-.5,2.77-2.13,6.46-5.5,6.46-4.79,0-4.54-5.68-3.97-9.33.53-3.26,2.24-9.44,6.63-9.44s4.04,5.57,3.51,8.76l-.18,1.1h-7.66ZM31.32,296.65l.04-.32c.18-1.74.71-5.43-1.7-5.43-2.2,0-3.37,4.12-3.62,5.75h5.29Z"/>
        <path class="cls-4" d="M43.49,291.15h-3.01l-2.55,16.07h-2.31l2.55-16.07h-1.95l.32-2.13h1.95l.78-4.97h2.31l-.78,4.97h3.01l-.32,2.13Z"/>
        <path class="cls-4" d="M46.9,291.43h.07c.71-1.28,1.95-2.73,3.48-2.7l-.46,2.7-.43-.04c-2.38,0-3.02,2.31-3.48,5.22l-1.67,10.61h-2.31l2.87-18.2h2.31l-.39,2.41Z"/>
        <path class="cls-4" d="M60.73,298.1c-.57,3.44-1.92,9.4-6.71,9.4s-4.29-5.96-3.73-9.4c.53-3.41,1.92-9.37,6.71-9.37s4.26,5.96,3.73,9.37ZM52.68,298.1c-.28,1.77-1.1,7.24,1.67,7.24s3.72-5.46,4.01-7.24c.25-1.74,1.06-7.2-1.7-7.2s-3.72,5.46-3.97,7.2Z"/>
        <path class="cls-4" d="M64.28,307.22h-2.31l4.5-28.38h2.31l-4.51,28.38Z"/>
        <path class="cls-4" d="M78.83,298.1c-.57,3.44-1.92,9.4-6.71,9.4s-4.29-5.96-3.73-9.4c.53-3.41,1.92-9.37,6.71-9.37s4.26,5.96,3.73,9.37ZM70.77,298.1c-.28,1.77-1.1,7.24,1.67,7.24s3.72-5.46,4.01-7.24c.25-1.74,1.06-7.2-1.7-7.2s-3.72,5.46-3.97,7.2Z"/>
        <path class="cls-4" d="M89.33,307.89c-.53,3.41-1.17,6.56-5.78,6.56-3.19,0-4.4-1.92-3.9-5.04l.11-.67h2.27l-.04.32c-.28,1.7-.07,3.23,1.92,3.23,2.59,0,2.73-2.27,3.05-4.22l.36-2.13c-.92.89-1.95,1.28-3.16,1.28-4.54,0-3.62-6.28-3.12-9.51.5-3.05,1.81-8.98,6.03-8.98,1.24,0,2.16.57,2.7,1.53h.07l.18-1.24h2.31l-2.98,18.87ZM85.07,305.34c2.45,0,3.12-3.58,3.76-7.56.53-3.33.92-7.17-1.6-7.17-1.67,0-2.87,1.14-3.94,7.8-.32,1.99-1.14,6.92,1.77,6.92Z"/>
        <path class="cls-4" d="M94.93,307.22h-2.31l2.87-18.2h2.31l-2.87,18.2ZM99.47,280.61l1.6,1.7-5.25,4.15-.99-1.06,4.65-4.79Z"/>
        <path class="cls-4" d="M107.31,307.22h-2.31l.21-1.42h-.07c-.82,1.03-1.95,1.7-3.26,1.7-2.91,0-4.08-1.63-2.84-9.58.67-4.08,1.63-9.19,6.03-9.19,1.28,0,1.99.53,2.55,1.53h.07l.18-1.24h2.31l-2.87,18.2ZM105.29,290.62c-2.55,0-3.33,4.04-3.83,7.13-1.17,7.52,0,7.88,1.35,7.88,2.24,0,2.98-2.09,3.9-7.8.64-3.94.85-7.2-1.42-7.2Z"/>
        <path class="cls-4" d="M110.4,312.93l-1.56-.82,4.04-8.23,2.34,1.14-4.82,7.91Z"/>
        <path class="cls-4" d="M134.95,292.11c-.46-.6-1.1-1.21-1.99-1.21-2.98,0-4.08,5.18-4.43,7.27-.28,1.81-.75,7.17,1.99,7.17,1.06,0,1.88-.82,2.55-1.63h.07l-.46,2.87c-.78.57-1.88.92-2.77.92-4.19,0-4.29-5.89-3.8-9.01.53-3.44,2.27-9.76,6.88-9.76.85,0,1.7.25,2.38.71l-.43,2.66Z"/>
        <path class="cls-4" d="M144.32,307.22h-2.31l.21-1.42h-.07c-.82,1.03-1.95,1.7-3.26,1.7-2.91,0-4.08-1.63-2.84-9.58.67-4.08,1.63-9.19,6.03-9.19,1.28,0,1.99.53,2.55,1.53h.07l.18-1.24h2.31l-2.87,18.2ZM142.29,290.62c-2.55,0-3.33,4.04-3.83,7.13-1.17,7.52,0,7.88,1.35,7.88,2.24,0,2.98-2.09,3.9-7.8.64-3.94.85-7.2-1.42-7.2Z"/>
        <path class="cls-4" d="M149.81,307.22h-2.31l4.5-28.38h2.31l-4.51,28.38Z"/>
        <path class="cls-4" d="M155.31,307.22h-2.31l2.87-18.2h2.31l-2.87,18.2ZM157.65,285.37c-.96,0-1.63-.78-1.49-1.74.14-.92,1.06-1.7,2.02-1.7s1.56.78,1.42,1.7c-.14.96-1.03,1.74-1.95,1.74Z"/>
        <path class="cls-4" d="M166.74,291.15h-3.02l-2.55,16.07h-2.31l2.55-16.07h-1.95l.32-2.13h1.95l.85-5.39c.53-3.19,1.63-5.07,4.22-5.07.67,0,1.38.11,1.95.39l-.39,2.52c-.43-.39-.89-.78-1.56-.78-1.28,0-1.63,1.17-1.92,2.91l-.85,5.43h3.02l-.32,2.13ZM168.19,307.22h-2.31l2.87-18.2h2.31l-2.87,18.2ZM170.53,285.37c-.96,0-1.63-.78-1.49-1.74.14-.92,1.06-1.7,2.02-1.7s1.56.78,1.42,1.7c-.14.96-1.03,1.74-1.95,1.74Z"/>
        <path class="cls-4" d="M181.07,292.11c-.46-.6-1.1-1.21-1.99-1.21-2.98,0-4.08,5.18-4.43,7.27-.28,1.81-.75,7.17,1.99,7.17,1.06,0,1.88-.82,2.55-1.63h.07l-.46,2.87c-.78.57-1.88.92-2.77.92-4.19,0-4.29-5.89-3.8-9.01.53-3.44,2.27-9.76,6.88-9.76.85,0,1.7.25,2.38.71l-.43,2.66Z"/>
        <path class="cls-4" d="M190.44,307.22h-2.31l.21-1.42h-.07c-.82,1.03-1.95,1.7-3.26,1.7-2.91,0-4.08-1.63-2.84-9.58.67-4.08,1.63-9.19,6.03-9.19,1.28,0,1.99.53,2.55,1.53h.07l.18-1.24h2.31l-2.87,18.2ZM188.41,290.62c-2.55,0-3.33,4.04-3.83,7.13-1.17,7.52,0,7.88,1.35,7.88,2.24,0,2.98-2.09,3.9-7.8.64-3.94.85-7.2-1.42-7.2Z"/>
        <path class="cls-4" d="M203.31,292.11c-.46-.6-1.1-1.21-1.99-1.21-2.98,0-4.08,5.18-4.43,7.27-.28,1.81-.75,7.17,1.99,7.17,1.06,0,1.88-.82,2.55-1.63h.07l-.46,2.87c-.78.57-1.88.92-2.77.92-4.19,0-4.29-5.89-3.8-9.01.53-3.44,2.27-9.76,6.88-9.76.85,0,1.7.25,2.38.71l-.43,2.66Z"/>
        <path class="cls-4" d="M205.8,307.22h-2.31l2.87-18.2h2.31l-2.87,18.2ZM208.14,285.37c-.96,0-1.63-.78-1.49-1.74.14-.92,1.06-1.7,2.02-1.7s1.56.78,1.42,1.7c-.14.96-1.03,1.74-1.95,1.74Z"/>
        <path class="cls-4" d="M220.34,298.1c-.57,3.44-1.92,9.4-6.71,9.4s-4.29-5.96-3.73-9.4c.53-3.41,1.92-9.37,6.71-9.37s4.26,5.96,3.73,9.37ZM212.29,298.1c-.28,1.77-1.1,7.24,1.67,7.24s3.72-5.46,4.01-7.24c.25-1.74,1.06-7.2-1.7-7.2s-3.72,5.46-3.97,7.2Z"/>
        <path class="cls-4" d="M226.55,290.48c1.1-1.06,2.45-1.74,3.87-1.74,3.23,0,3.02,2.98,2.63,5.46l-2.06,13.02h-2.31l2.02-12.77c.35-2.16.46-3.83-1.45-3.83-2.63,0-3.19,2.87-3.48,4.79l-1.88,11.81h-2.31l2.87-18.2h2.31l-.21,1.45Z"/>
        <path class="cls-4" d="M237.37,298.6l-.07.53c-.28,1.81-.67,6.21,1.84,6.21,2.02,0,2.77-2.84,3.02-4.29h2.38c-.5,2.77-2.13,6.46-5.5,6.46-4.79,0-4.54-5.68-3.97-9.33.53-3.26,2.24-9.44,6.63-9.44s4.04,5.57,3.51,8.76l-.18,1.1h-7.66ZM243.01,296.65l.04-.32c.18-1.74.71-5.43-1.7-5.43-2.2,0-3.37,4.12-3.62,5.75h5.29Z"/>
        <path class="cls-4" d="M255.6,292.75h-.07c-.53-.96-1.46-1.84-2.73-1.84-1.38,0-2.45,1.06-2.66,2.41-.28,1.74,1.06,2.8,2.31,4.01,1.31,1.24,2.55,2.59,2.16,4.97-.46,2.91-2.77,5.21-5.78,5.21-1.14,0-2.34-.53-3.12-1.24l.43-2.7c.75.92,1.56,1.77,2.94,1.77,1.6,0,2.87-1.24,3.12-2.77.28-1.81-.99-3.02-2.27-4.33-1.24-1.28-2.52-2.7-2.16-4.86.43-2.73,2.55-4.65,5.29-4.65,1.17,0,2.16.46,2.98,1.17l-.43,2.84Z"/>
        <path class="cls-4" d="M266.1,314.17h-2.41l2.98-7.45-1.53-17.7h2.34l.75,14.69h.11c.57-1.56,1.1-3.12,1.7-4.68l3.9-10h2.41l-10.25,25.15Z"/>
        <path class="cls-4" d="M288.06,307.22h-2.48l-1.28-18.2h2.34l.53,11.39c.07,1.14.07,2.27.14,3.41h.14c.32-1.14.67-2.31,1.03-3.41l4.12-11.39h2.38l-6.92,18.2Z"/>
        <path class="cls-4" d="M303.14,307.22h-2.31l.21-1.42h-.07c-.82,1.03-1.95,1.7-3.26,1.7-2.91,0-4.08-1.63-2.84-9.58.67-4.08,1.63-9.19,6.03-9.19,1.28,0,1.99.53,2.55,1.53h.07l.18-1.24h2.31l-2.87,18.2ZM301.12,290.62c-2.55,0-3.33,4.04-3.83,7.13-1.17,7.52,0,7.88,1.35,7.88,2.24,0,2.98-2.09,3.9-7.8.64-3.94.85-7.2-1.42-7.2Z"/>
        <path class="cls-4" d="M308.64,307.22h-2.31l4.5-28.38h2.31l-4.51,28.38Z"/>
        <path class="cls-4" d="M314.14,307.22h-2.31l2.87-18.2h2.31l-2.87,18.2ZM316.48,285.37c-.96,0-1.63-.78-1.49-1.74.14-.92,1.06-1.7,2.02-1.7s1.56.78,1.42,1.7c-.14.96-1.03,1.74-1.95,1.74Z"/>
        <path class="cls-4" d="M324.43,305.8h-.07c-.82,1.03-1.95,1.7-3.26,1.7-3.8,0-3.62-4.61-2.84-9.58.82-4.97,1.99-9.19,6.03-9.19,1.28,0,1.99.53,2.55,1.53h.07l1.81-11.42h2.31l-4.5,28.38h-2.31l.21-1.42ZM324.5,290.62c-2.59,0-3.41,4.54-3.83,7.13-.25,1.7-1.6,7.88,1.35,7.88,2.45,0,3.16-3.02,3.9-7.8.67-4.15.71-7.2-1.42-7.2Z"/>
        <path class="cls-4" d="M338.9,307.22h-2.31l.21-1.42h-.07c-.82,1.03-1.95,1.7-3.26,1.7-2.91,0-4.08-1.63-2.84-9.58.67-4.08,1.63-9.19,6.03-9.19,1.28,0,1.99.53,2.55,1.53h.07l.18-1.24h2.31l-2.87,18.2ZM336.88,290.62c-2.55,0-3.33,4.04-3.83,7.13-1.17,7.52,0,7.88,1.35,7.88,2.24,0,2.98-2.09,3.9-7.8.64-3.94.85-7.2-1.42-7.2Z"/>
        <path class="cls-4" d="M351.78,292.11c-.46-.6-1.1-1.21-1.99-1.21-2.98,0-4.08,5.18-4.43,7.27-.28,1.81-.75,7.17,1.99,7.17,1.06,0,1.88-.82,2.55-1.63h.07l-.46,2.87c-.78.57-1.88.92-2.77.92-4.19,0-4.29-5.89-3.8-9.01.53-3.44,2.27-9.76,6.88-9.76.85,0,1.7.25,2.38.71l-.43,2.66Z"/>
        <path class="cls-4" d="M354.26,307.22h-2.31l2.87-18.2h2.31l-2.87,18.2ZM356.6,285.37c-.96,0-1.63-.78-1.49-1.74.14-.92,1.06-1.7,2.02-1.7s1.56.78,1.42,1.7c-.14.96-1.03,1.74-1.95,1.74Z"/>
        <path class="cls-4" d="M368.81,298.1c-.57,3.44-1.92,9.4-6.71,9.4s-4.29-5.96-3.73-9.4c.53-3.41,1.92-9.37,6.71-9.37s4.26,5.96,3.73,9.37ZM360.75,298.1c-.28,1.77-1.1,7.24,1.67,7.24s3.72-5.46,4.01-7.24c.25-1.74,1.06-7.2-1.7-7.2s-3.72,5.46-3.97,7.2Z"/>
        <path class="cls-4" d="M375.01,290.48c1.1-1.06,2.45-1.74,3.87-1.74,3.23,0,3.02,2.98,2.63,5.46l-2.06,13.02h-2.31l2.02-12.77c.35-2.16.46-3.83-1.45-3.83-2.63,0-3.19,2.87-3.48,4.79l-1.88,11.81h-2.31l2.87-18.2h2.31l-.21,1.45Z"/>
        <path class="cls-4" d="M385.83,298.6l-.07.53c-.28,1.81-.67,6.21,1.84,6.21,2.02,0,2.77-2.84,3.02-4.29h2.38c-.5,2.77-2.13,6.46-5.5,6.46-4.79,0-4.54-5.68-3.97-9.33.53-3.26,2.24-9.44,6.63-9.44s4.04,5.57,3.51,8.76l-.18,1.1h-7.66ZM391.47,296.65l.04-.32c.18-1.74.71-5.43-1.7-5.43-2.2,0-3.37,4.12-3.62,5.75h5.29Z"/>
        <path class="cls-4" d="M404.07,292.75h-.07c-.53-.96-1.46-1.84-2.73-1.84-1.38,0-2.45,1.06-2.66,2.41-.28,1.74,1.06,2.8,2.31,4.01,1.31,1.24,2.55,2.59,2.16,4.97-.46,2.91-2.77,5.21-5.78,5.21-1.14,0-2.34-.53-3.12-1.24l.43-2.7c.75.92,1.56,1.77,2.94,1.77,1.6,0,2.87-1.24,3.12-2.77.28-1.81-.99-3.02-2.27-4.33-1.24-1.28-2.52-2.7-2.16-4.86.43-2.73,2.55-4.65,5.29-4.65,1.17,0,2.16.46,2.98,1.17l-.43,2.84Z"/>
      </g>
    </g>
  </g>
</svg>