<?xml version="1.0" encoding="UTF-8"?>
<svg id="Layer_2" data-name="Layer 2" xmlns="http://www.w3.org/2000/svg" viewBox="0 0 490.61 317.51">
  <defs>
    <style>
      .cls-1 {
        fill: #005c70;
      }

      .cls-2 {
        fill: #fff;
      }

      .cls-3 {
        fill: #999;
      }

      .cls-4 {
        fill: #ed751c;
      }

      .cls-5 {
        fill: #ffcc34;
      }
    </style>
  </defs>
  <g id="Color_Negro_Blanco" data-name="Color Negro Blanco">
    <rect class="cls-2" width="490.61" height="317.51"/>
    <g>
      <g>
        <path class="cls-4" d="M324.93,75.67C324.93,34.16,291.28.52,249.77.52c-21.54,0-41.42,9.84-55.12,24.36l-20.42-.77c-4.7,0-8.55,3.85-8.55,8.55v113.8c0,4.7,3.85,8.55,8.55,8.55h113.8c4.7,0,8.55-3.85,8.55-8.55v-12c17.27-13.77,28.34-34.99,28.34-58.79Z"/>
        <g>
          <circle class="cls-5" cx="250.56" cy="75.01" r="61.12"/>
          <g>
            <path class="cls-2" d="M253.27,72.62h14.34c0-7.92-6.42-14.33-14.34-14.33v14.33Z"/>
            <g>
              <g id="_2lylEx" data-name="2lylEx">
                <path class="cls-2" d="M293.12,81.91c-1.42,0-2.69-.02-3.95,0-3.78.06-6.5,1.81-8.19,5.18-1.86,3.73-1.26,7.13,1.41,10.22.73.85,1.62,1.56,2.34,2.42.24.29.39,1.06.2,1.25-2.99,3.13-6.04,6.2-9.07,9.27-1.72-1.52-3.14-3-4.79-4.16-2.94-2.07-6.06-1.79-9.12-.16-2.99,1.6-4.59,4.13-4.81,7.5-.08,1.17.06,2.36-.05,3.52-.04.36-.6.94-.94.94-4.19.06-8.37.04-12.84.04,0-1.29,0-2.49,0-3.69.02-5.54-4.27-9.77-9.77-9.55-2.15.09-4.08.89-5.64,2.44-1.01,1-2,2.03-3.13,3.17-2.1-2.07-4.14-4.06-6.16-6.06-.87-.86-1.66-1.81-2.58-2.62-.89-.79-.95-1.34-.02-2.21,1.82-1.71,3.59-3.44,4.24-6.05,1.39-5.56-2.91-11.34-8.65-11.44-.97-.02-1.95-.06-2.91,0-1.02.06-1.43-.2-1.41-1.36.08-4.03.03-8.06.03-12.44,1.35,0,2.7.05,4.04,0,2.96-.13,5.42-1.2,7.24-3.67,2.56-3.49,2.64-7.63,0-11.07-.83-1.09-1.85-2.04-2.83-3.01-.52-.51-.77-.95-.15-1.53.22-.21.43-.43.65-.65,2.76-2.79,5.52-5.57,8.7-8.78.86,1.06,1.53,2.03,2.34,2.86,5.24,5.35,13.56,3.31,15.71-3.86.27-.91.27-1.91.32-2.88.05-1.1.01-2.21.01-3.46,1.87,0,3.5.01,5.13,0,1.02-.01,1.47.4,1.46,1.47-.04,6.39-.05,12.79-.04,19.18,0,1-.28,1.34-1.37,1.47-7.98.95-13.93,5.05-17.3,12.29-2.87,6.18-2.57,12.54.79,18.56,2.84,5.09,7.1,8.46,12.75,10.09,7.51,2.17,16.36-.61,21.35-6.64,2.87-3.47,4.52-7.39,4.93-11.82.11-1.24.65-1.46,1.76-1.45,6.24.04,12.48.04,18.72,0,1.17,0,1.69.29,1.63,1.53-.07,1.63-.02,3.26-.02,5.16Z"/>
              </g>
              <path class="cls-2" d="M273.84,72.62c0-5.49-2.14-10.65-6.02-14.53-3.88-3.88-9.04-6.02-14.53-6.02h0v-6.82h0c7.31,0,14.18,2.85,19.36,8.01,5.17,5.17,8.02,12.04,8.02,19.36h-6.82Z"/>
              <path class="cls-2" d="M287.01,72.62c0-18.59-15.14-33.72-33.73-33.72h0v-6.82h0c22.36,0,40.55,18.19,40.55,40.54h-6.82Z"/>
            </g>
          </g>
        </g>
      </g>
      <g>
        <g>
          <path class="cls-3" d="M321.49,306.87h-2.41v-13.37c0-.65.11-1.33.14-1.98h-.11c-.29,1.11-.54,2.23-.9,3.34l-3.88,12.01h-2.37l-.83-18.44h2.37l.04,10.89c0,1.4.07,2.77.11,4.17h.14c.39-1.4.75-2.77,1.18-4.17l3.52-10.89h2.37l-.07,12.76c0,.75-.04,1.54-.04,2.3h.11c.36-1.19.68-2.41,1.12-3.59l4.1-11.47h2.37l-6.98,18.44Z"/>
          <path class="cls-3" d="M330.63,298.14l-.07.54c-.29,1.83-.68,6.29,1.87,6.29,2.05,0,2.8-2.88,3.05-4.35h2.41c-.5,2.81-2.16,6.54-5.57,6.54-4.85,0-4.6-5.75-4.03-9.45.54-3.31,2.27-9.56,6.72-9.56s4.1,5.64,3.56,8.88l-.18,1.11h-7.76ZM336.34,296.16l.04-.32c.18-1.76.72-5.5-1.73-5.5-2.23,0-3.41,4.17-3.67,5.82h5.36Z"/>
          <path class="cls-3" d="M356.66,291.56c-.47-.61-1.12-1.22-2.01-1.22-3.02,0-4.13,5.25-4.49,7.37-.29,1.83-.76,7.26,2.01,7.26,1.08,0,1.91-.83,2.59-1.65h.07l-.47,2.91c-.79.58-1.91.93-2.81.93-4.24,0-4.35-5.97-3.85-9.13.54-3.49,2.3-9.89,6.97-9.89.86,0,1.73.25,2.41.72l-.43,2.7Z"/>
          <path class="cls-3" d="M368.17,297.64c-.58,3.49-1.94,9.53-6.8,9.53s-4.35-6.04-3.77-9.53c.54-3.45,1.94-9.49,6.8-9.49s4.31,6.04,3.77,9.49ZM360.01,297.64c-.29,1.8-1.12,7.33,1.69,7.33s3.77-5.54,4.06-7.33c.25-1.76,1.08-7.3-1.73-7.3s-3.77,5.54-4.03,7.3Z"/>
          <path class="cls-3" d="M376.44,305.44h-.07c-.83,1.04-1.98,1.73-3.31,1.73-3.85,0-3.67-4.67-2.88-9.71.83-5.03,2.01-9.31,6.11-9.31,1.3,0,2.01.54,2.59,1.55h.07l1.83-11.58h2.34l-4.57,28.76h-2.34l.22-1.44ZM376.51,290.05c-2.62,0-3.45,4.6-3.88,7.22-.25,1.73-1.62,7.98,1.36,7.98,2.48,0,3.2-3.05,3.95-7.91.68-4.21.72-7.3-1.44-7.3Z"/>
          <path class="cls-3" d="M384.86,298.14l-.07.54c-.29,1.83-.68,6.29,1.87,6.29,2.05,0,2.8-2.88,3.05-4.35h2.41c-.5,2.81-2.16,6.54-5.57,6.54-4.85,0-4.6-5.75-4.03-9.45.54-3.31,2.27-9.56,6.72-9.56s4.1,5.64,3.56,8.88l-.18,1.11h-7.76ZM390.58,296.16l.04-.32c.18-1.76.72-5.5-1.73-5.5-2.23,0-3.41,4.17-3.67,5.82h5.36Z"/>
          <path class="cls-3" d="M410.46,292.21h-.07c-.54-.97-1.47-1.87-2.77-1.87-1.4,0-2.48,1.08-2.7,2.45-.29,1.76,1.08,2.84,2.34,4.06,1.33,1.26,2.59,2.63,2.19,5.03-.47,2.95-2.81,5.28-5.86,5.28-1.15,0-2.37-.54-3.16-1.26l.43-2.73c.75.94,1.58,1.8,2.98,1.8,1.62,0,2.91-1.26,3.16-2.81.29-1.83-1.01-3.05-2.3-4.38-1.26-1.3-2.55-2.73-2.19-4.93.43-2.77,2.59-4.71,5.36-4.71,1.19,0,2.19.47,3.02,1.19l-.43,2.88Z"/>
          <path class="cls-3" d="M422.4,297.64c-.58,3.49-1.94,9.53-6.8,9.53s-4.35-6.04-3.77-9.53c.54-3.45,1.94-9.49,6.8-9.49s4.31,6.04,3.77,9.49ZM414.24,297.64c-.29,1.8-1.12,7.33,1.69,7.33s3.77-5.54,4.06-7.33c.25-1.76,1.08-7.3-1.73-7.3s-3.77,5.54-4.03,7.3Z"/>
          <path class="cls-3" d="M425.82,306.87h-2.34l4.57-28.76h2.34l-4.57,28.76Z"/>
          <path class="cls-3" d="M433.98,288.43l-1.83,11.57c-.4,2.52-.65,4.96,1.65,4.96s2.88-2.45,3.31-4.96l1.83-11.57h2.34l-2.12,13.55c-.5,3.09-2.34,5.18-5.64,5.18s-4.49-2.05-3.99-5.18l2.12-13.55h2.34Z"/>
          <path class="cls-3" d="M450.24,290.59h-3.06l-2.59,16.29h-2.34l2.59-16.29h-1.98l.32-2.16h1.98l.79-5.03h2.34l-.79,5.03h3.06l-.32,2.16Z"/>
          <path class="cls-3" d="M451,306.87h-2.34l2.91-18.44h2.34l-2.91,18.44ZM453.37,284.73c-.97,0-1.65-.79-1.51-1.76.14-.94,1.08-1.73,2.05-1.73s1.58.79,1.44,1.73c-.14.97-1.04,1.76-1.98,1.76Z"/>
          <path class="cls-3" d="M465.56,297.64c-.58,3.49-1.94,9.53-6.8,9.53s-4.35-6.04-3.77-9.53c.54-3.45,1.94-9.49,6.8-9.49s4.31,6.04,3.77,9.49ZM457.4,297.64c-.29,1.8-1.12,7.33,1.69,7.33s3.77-5.54,4.06-7.33c.25-1.76,1.08-7.3-1.73-7.3s-3.77,5.54-4.03,7.3Z"/>
          <path class="cls-3" d="M471.67,289.91c1.11-1.08,2.48-1.76,3.92-1.76,3.27,0,3.05,3.02,2.66,5.54l-2.09,13.19h-2.34l2.05-12.94c.36-2.19.47-3.88-1.47-3.88-2.66,0-3.24,2.91-3.52,4.85l-1.91,11.97h-2.34l2.91-18.44h2.34l-.22,1.47Z"/>
          <path class="cls-3" d="M488.61,292.21h-.07c-.54-.97-1.47-1.87-2.77-1.87-1.4,0-2.48,1.08-2.7,2.45-.29,1.76,1.08,2.84,2.34,4.06,1.33,1.26,2.59,2.63,2.19,5.03-.47,2.95-2.81,5.28-5.86,5.28-1.15,0-2.37-.54-3.16-1.26l.43-2.73c.75.94,1.58,1.8,2.98,1.8,1.62,0,2.91-1.26,3.16-2.81.29-1.83-1.01-3.05-2.3-4.38-1.26-1.3-2.55-2.73-2.19-4.93.43-2.77,2.59-4.71,5.36-4.71,1.19,0,2.19.47,3.02,1.19l-.43,2.88Z"/>
        </g>
        <g>
          <path class="cls-1" d="M19.24,246.34c.18,3.75,1.52,6.43,4.02,8.04,2.32,1.79,5.98,2.68,10.99,2.68,7.68,0,11.52-2.32,11.52-6.97,0-3.75-6.25-6.7-18.76-8.84-16.08-2.86-24.21-10-24.38-21.44,0-7.15,2.59-12.86,7.77-17.15,5-3.93,12.06-5.98,21.17-6.16,9.29,0,16.7,2.05,22.24,6.16,5.36,4.29,8.22,10.18,8.57,17.69h-11.52c-4.29-.18-6.97-1.7-8.04-4.56-1.25-3.22-4.91-4.82-10.99-4.82-7.15,0-10.72,1.88-10.72,5.63s4.73,6.52,14.2,8.31c12.33,2.5,20.45,5.63,24.38,9.38,3.39,3.57,5.09,7.86,5.09,12.86,0,8.04-2.86,14.11-8.57,18.22-5.54,4.11-13.76,6.16-24.65,6.16-10.18,0-17.77-2.14-22.78-6.43-5.54-4.11-8.31-10.36-8.31-18.76h18.76Z"/>
          <path class="cls-1" d="M77.41,176.94c6.07,0,9.02,2.95,8.84,8.84v5.36h-18.22v-14.2h9.38ZM77.41,197.57c5.9,0,8.84,2.95,8.84,8.84v63.77h-18.22v-72.62h9.38Z"/>
          <path class="cls-1" d="M143.46,270.19c-6.07-.36-9.11-3.39-9.11-9.11v-37.25c-.36-7.5-4.56-11.25-12.59-11.25s-12.15,3.75-12.33,11.25v46.36h-18.49v-42.61c0-20.72,10.36-31.08,31.08-31.08s30.99,10.36,30.82,31.08v42.61h-9.38Z"/>
          <path class="cls-1" d="M184.9,271.53c-19.29,0-28.94-12.5-28.94-37.51s11.25-36.35,33.76-36.71c22.69-.18,34.03,10.63,34.03,32.42v42.87c0,18.22-11.61,27.51-34.83,27.87-16.43,0-26.8-7.68-31.08-23.04h20.1c1.25,5.18,5.63,7.77,13.13,7.77,9.65,0,14.47-5.63,14.47-16.88v-7.5c-4.64,7.15-11.52,10.72-20.63,10.72ZM189.99,255.45c9.83,0,15.01-6.97,15.54-20.9.18-14.65-4.91-21.97-15.27-21.97s-15.54,7.32-15.54,21.97c.36,13.93,5.45,20.9,15.27,20.9Z"/>
          <path class="cls-1" d="M288.89,241.25c0,12.5-3.22,20.72-9.65,24.65-6.43,3.75-13.58,5.63-21.44,5.63s-14.38-2.05-20.63-6.16c-6.25-3.93-9.38-11.97-9.38-24.12v-43.68h18.22v47.43c0,8.04,4.11,12.06,12.33,12.06s12.33-4.02,12.33-12.06v-38.32c-.18-6.07,2.77-9.11,8.84-9.11h9.38v43.68Z"/>
          <path class="cls-1" d="M302.74,176.94c2.32,0,4.38.85,6.16,2.55,1.79,1.7,2.68,3.8,2.68,6.3v84.41h-18.22v-93.25h9.38Z"/>
          <path class="cls-1" d="M343.59,271.53c-7.15.54-13.22-.45-18.22-2.95-7.5-3.75-11.25-10.36-11.25-19.83.18-7.32,2.68-12.86,7.5-16.61,4.82-3.75,12.77-6.16,23.85-7.23,7.86-.89,11.79-3.3,11.79-7.23-.36-4.11-4.29-6.16-11.79-6.16-6.43,0-10.09,1.7-10.99,5.09h-18.22c2.14-13.4,11.61-20.1,28.4-20.1,20.01,0,30.19,6.7,30.55,20.1v24.65c0,12.33-4.47,20.9-13.4,25.72-4.82,2.5-10.9,4.02-18.22,4.56ZM343.06,238.03c-7.32,1.43-10.99,4.82-10.99,10.18.36,5.72,3.39,8.57,9.11,8.57,5,0,9.02-1.43,12.06-4.29,2.86-2.86,4.29-6.88,4.29-12.06v-6.7c-4.29,1.79-9.11,3.22-14.47,4.29Z"/>
          <path class="cls-1" d="M378.57,232.67c.54-23.4,12.95-35.1,37.25-35.1h2.68v19.03h-6.16c-10.18,0-15.27,5.27-15.27,15.81v37.78h-18.49v-37.51Z"/>
          <path class="cls-1" d="M461.7,251.22h-37.2v-15.52l32.52-51.25h13.06c5.75,0,8.62,2.96,8.62,8.87v43.61h10.35v14.29h-10.35v18.97h-17v-18.97ZM461.94,199.73l-23.9,37.7h23.9v-37.7Z"/>
        </g>
      </g>
    </g>
  </g>
</svg>