<?xml version="1.0" encoding="UTF-8"?>
<svg id="Layer_2" data-name="Layer 2" xmlns="http://www.w3.org/2000/svg" viewBox="0 0 239.94 31.67">
  <defs>
    <style>
      .cls-1 {
        fill: #004987;
      }

      .cls-2 {
        fill: none;
      }

      .cls-3 {
        fill: #0071ce;
      }

      .cls-4 {
        fill: #1a5992;
      }
    </style>
  </defs>
  <g id="Color_Negro_Blanco" data-name="Color Negro Blanco">
    <g>
      <path class="cls-2" d="M73.77,8.68c-.69-.65-1.48-1.16-2.37-1.52-.9-.36-1.84-.54-2.84-.54s-1.95.18-2.84.54c-.9.36-1.68.87-2.35,1.52-.67.65-1.21,1.42-1.6,2.3-.4.88-.59,1.85-.59,2.89s.2,2.01.59,2.89c.39.88.93,1.65,1.6,2.3.67.65,1.46,1.16,2.35,1.52.89.36,1.84.54,2.84.54s1.95-.18,2.84-.54c.89-.36,1.69-.87,2.37-1.52.69-.65,1.23-1.42,1.62-2.3.4-.88.59-1.85.59-2.89s-.2-2.01-.59-2.89c-.4-.88-.94-1.65-1.62-2.3Z"/>
      <path class="cls-2" d="M164.68,7.02c-.72-.56-1.76-.84-3.1-.84h-1.29v6.49h1.29c1.35,0,2.38-.28,3.1-.84.72-.56,1.08-1.36,1.08-2.41s-.36-1.85-1.08-2.41Z"/>
      <polygon class="cls-2" points="133.29 17.45 139.43 17.45 136.36 8.7 133.29 17.45"/>
      <polygon class="cls-2" points="223.13 17.26 229.27 17.26 226.2 8.51 223.13 17.26"/>
      <path class="cls-1" d="M44.11,10.99c-.56-.19-1.12-.36-1.69-.52-.57-.16-1.08-.35-1.53-.58-.45-.22-.82-.48-1.1-.78-.28-.3-.42-.69-.42-1.15,0-.67.28-1.22.84-1.64.56-.42,1.28-.63,2.16-.63.7,0,1.42.15,2.16.44.74.29,1.49.74,2.23,1.34l2.72-5.34c-1.3-.7-2.66-1.23-4.08-1.59-1.42-.36-2.78-.54-4.08-.54-1.4,0-2.66.21-3.78.63-1.13.42-2.08,1.01-2.86,1.76-.78.76-1.38,1.66-1.81,2.72-.43,1.06-.65,2.24-.65,3.54s.2,2.38.61,3.23c.41.85.94,1.55,1.6,2.11.66.56,1.42,1.01,2.27,1.34.85.34,1.71.65,2.6.92.74.26,1.38.49,1.9.7.52.21.95.44,1.27.68.33.24.56.51.7.8.14.29.21.63.21,1.03,0,.65-.27,1.23-.82,1.74-.55.51-1.38.77-2.49.77-.98,0-1.96-.22-2.96-.66-1-.44-2.01-1.12-3.03-2.02l-2.93,5.51c2.84,1.98,5.92,2.96,9.24,2.96,1.6,0,3.04-.22,4.31-.65,1.27-.43,2.34-1.03,3.21-1.81.87-.78,1.53-1.71,1.99-2.81.45-1.09.68-2.31.68-3.66,0-2-.52-3.62-1.55-4.87-1.04-1.24-2.67-2.24-4.9-2.98Z"/>
      <path class="cls-1" d="M79.04,4.01c-1.29-1.26-2.83-2.24-4.62-2.95-1.79-.71-3.74-1.06-5.86-1.06s-4.1.35-5.88,1.06c-1.78.71-3.31,1.69-4.59,2.95-1.28,1.26-2.28,2.73-3,4.41-.72,1.69-1.08,3.51-1.08,5.46s.36,3.77,1.08,5.46c.72,1.69,1.72,3.16,3,4.41,1.28,1.26,2.81,2.24,4.59,2.95,1.78.71,3.74,1.06,5.88,1.06s4.07-.35,5.86-1.06c1.79-.71,3.33-1.69,4.62-2.95,1.29-1.26,2.3-2.73,3.02-4.41.72-1.69,1.08-3.51,1.08-5.46s-.36-3.77-1.08-5.46c-.72-1.69-1.73-3.16-3.02-4.41ZM75.39,16.78c-.4.88-.94,1.65-1.62,2.3-.69.65-1.48,1.16-2.37,1.52-.9.36-1.84.54-2.84.54s-1.95-.18-2.84-.54c-.9-.36-1.68-.87-2.35-1.52-.67-.65-1.21-1.42-1.6-2.3-.4-.88-.59-1.85-.59-2.89s.2-2.01.59-2.89c.39-.88.93-1.65,1.6-2.3.67-.65,1.46-1.16,2.35-1.52.89-.36,1.84-.54,2.84-.54s1.95.18,2.84.54c.89.36,1.69.87,2.37,1.52.69.65,1.23,1.42,1.62,2.3.4.88.59,1.85.59,2.89s-.2,2.01-.59,2.89Z"/>
      <polygon class="cls-1" points="94.65 .73 87.81 .73 87.81 27.03 102.84 27.03 102.84 21.24 94.65 21.24 94.65 .73"/>
      <polygon class="cls-3" points="106.71 27.22 113.55 27.22 113.55 16.89 121.05 16.89 121.05 11.1 113.55 11.1 113.55 6.71 121.78 6.71 121.78 .92 106.71 .92 106.71 27.22"/>
      <path class="cls-3" d="M132.63.92l-10.01,26.3h7.29l1.57-4.57h9.76l1.57,4.57h7.29L140.09.92h-7.46ZM133.29,17.45l3.07-8.75,3.07,8.75h-6.14Z"/>
      <path class="cls-3" d="M171.32,13.91c.96-1.24,1.45-2.87,1.45-4.87,0-1.12-.18-2.16-.54-3.14-.36-.98-.9-1.84-1.6-2.58-.71-.74-1.61-1.33-2.7-1.76-1.09-.43-2.37-.65-3.84-.65h-10.64v26.3h6.84v-10.11l6.52,10.11h8.51l-8.27-10.78c1.88-.44,3.31-1.28,4.27-2.53ZM164.68,11.84c-.72.56-1.76.84-3.1.84h-1.29v-6.49h1.29c1.35,0,2.38.28,3.1.84.72.56,1.08,1.36,1.08,2.41s-.36,1.85-1.08,2.41Z"/>
      <polygon class="cls-3" points="199.07 .92 193.83 14.94 188.57 .92 181.8 .92 177.34 27.22 184.14 27.22 186.41 12.08 192.3 27.22 195.02 27.22 201.23 12.08 203.49 27.22 210.3 27.22 205.83 .92 199.07 .92"/>
      <path class="cls-3" d="M229.93.73h-7.46l-10.01,26.3h7.29l1.57-4.57h9.76l1.57,4.57h7.29L229.93.73ZM223.13,17.26l3.07-8.75,3.07,8.75h-6.14Z"/>
      <path class="cls-3" d="M7.03,25.77c-.03-.12-.06-.24-.08-.36-.03-.1-.05-.2-.09-.3-.43-1.15.04-2.17.93-3.05,2.87-2.83,5.7-5.68,8.55-8.52-.25-1.48-1.24-2.28-2.92-2.35-1.05-.04-2.1-.02-3.16-.03-.66,0-1.33-.09-1.33-.94,0-.89.66-1.03,1.39-1.03,1.03,0,2.07,0,3.1,0v-1.58H2.87c0,1,.06,1.86-.03,2.71-.03.32-.33.78-.62.89C.52,11.87.01,12.5,0,14.32c0,3.62-.01,7.25,0,10.87.01,2.09,1.07,3.14,3.18,3.15,1.69.01,1.93.01,2.72.01.01-.01.03-.02.04-.04.76-.75,1.23-1.52,1.08-2.55ZM4.72,24.17c0,.49-.4.9-.9.9h-1.19c-.49,0-.9-.4-.9-.9v-5.94c0-.49.4-.9.9-.9h1.19c.49,0,.9.4.9.9v5.94ZM3.23,16.45c-.89,0-1.62-.72-1.62-1.62s.72-1.62,1.62-1.62,1.62.72,1.62,1.62-.72,1.62-1.62,1.62Z"/>
      <polygon class="cls-1" points="16.42 14.83 16.42 14.83 16.42 14.83 16.42 14.83"/>
      <g>
        <g>
          <rect class="cls-2" x="6.44" y="20.47" width="10.2" height="2.52" rx=".99" ry=".99" transform="translate(-11.99 14.52) rotate(-45)"/>
          <polygon class="cls-2" points="16.42 14.83 16.42 14.83 16.42 14.83 16.42 14.83"/>
          <path class="cls-2" d="M15.81,16.8c.62.24,1.29.51,1.97.78q2.47.96,4.27-1.08c-1.05-1.07-2.04-2.08-2.91-2.97-1.08,1.06-2.19,2.16-3.33,3.27Z"/>
        </g>
        <path class="cls-1" d="M26.3,15.46c-2.2-2.15-4.38-4.32-6.54-6.52-.49-.5-.85-.61-1.32-.04-.22.27-.47.51-.73.74-.45.39-.51.76-.05,1.17.22.2.41.44.84.91-.41.28-.81.47-1.11.77-.35.35-.7.7-1.05,1.05-2.85,2.84-5.69,5.7-8.55,8.52-.89.88-1.36,1.9-.93,3.05.04.1.06.2.09.3.02.12.04.24.08.36.15,1.03-.32,1.8-1.08,2.55-.01.01-.03.02-.04.04-.68.67-1.41,1.31-2,2.05-.05.07-.09.15-.11.24-.16.59.42,1.16,1.01,1,.1-.03.19-.06.26-.12.76-.59,1.41-1.33,2.09-2.04.9-.93,1.85-1.44,3.21-.9,1.03.41,2,.03,2.78-.72.9-.87,1.77-1.76,2.65-2.64,2.69-2.7,5.38-5.4,8.08-8.12.21.16.35.24.43.35.92,1.28,1.42.19,2.07-.32.81-.64.51-1.09-.09-1.67ZM15.33,19.72l-5.81,5.81c-.39.39-1.02.39-1.4,0l-.38-.38c-.39-.39-.39-1.02,0-1.4l5.81-5.81c.39-.39,1.02-.39,1.4,0l.38.38c.39.39.39,1.02,0,1.4ZM17.78,17.58c-.68-.26-1.35-.53-1.97-.78,1.14-1.12,2.25-2.21,3.33-3.27.87.89,1.87,1.9,2.91,2.97q-1.8,2.04-4.27,1.08Z"/>
      </g>
      <path class="cls-3" d="M11.76,5.62q3.18,0,3.02-3.17s0-.08,0-.12c.03-.65-.3-.88-.93-.88-3.77.01-7.55-.01-11.32.04-.31,0-.84.46-.87.75-.1,1.07-.04,2.16-.04,3.38h10.14Z"/>
      <path class="cls-4" d="M26.41,5.25c-.48-.48-1.27-.48-1.75,0l-.13.13c-.48.48-.48,1.27,0,1.75l.9.9c-.77.67-1.52,1.32-2.2,1.92.76.84,1.45,1.61,2.24,2.47.45-.5.82-.9,1.18-1.3.28-.31.57-.62.89-.97l.66.66c.48.48,1.27.48,1.75,0l.13-.13c.48-.48.48-1.27,0-1.75l-3.68-3.68Z"/>
    </g>
  </g>
</svg>